# xmcd CD database file
#
# Track frame offsets:
#	150
#	19977
#	44397
#	69633
#	91196
#	96488
#	125587
#	130725
#	143710
#	163923
#	178336
#	196342
#	212575
#	217748
#
# Disc length: 3187 seconds
#
# Revision: 0
# Processed by: cddbd v1.5.2PL0 Copyright (c) Steve Scherf et al.
# Submitted via: CDex 1.51
#
DISCID=d00c710e
DTITLE=Ten And Tracer - Tsotsitaal
DYEAR=2009
DGENRE=New Age
TTITLE0=Needed To Wet The Collar
TTITLE1=The Tradewasp
TTITLE2=Secular Boland
TTITLE3=Cut Grass Vuur Plaats
TTITLE4=You Sure Won't Need An Enemy
TTITLE5=What The NRPG Did For Me
TTITLE6=I'm Sorry You're Here
TTITLE7=Hetch Hetchy Crowd
TTITLE8=Another Way Of Ways
TTITLE9=Take A Like Of Me
TTITLE10=Falling Asleep In Sadness
TTITLE11=Dallon
TTITLE12=Not The Best Place To Leave Friends Behind
TTITLE13=The Small-Shellies
EXTD=YEAR: 2009
EXTT0=
EXTT1=
EXTT2=
EXTT3=
EXTT4=
EXTT5=
EXTT6=
EXTT7=
EXTT8=
EXTT9=
EXTT10=
EXTT11=
EXTT12=
EXTT13=
PLAYORDER=
